Coordinates
version=1
nRows=10
nColumns=33
inDegrees=yes

Units are S.I. units (second, meters, Newtons, ...)
Angles are in degrees.

endheader
time	ground_thorax_rot_x	ground_thorax_rot_y	ground_thorax_rot_z	ground_thorax_tx	ground_thorax_ty	ground_thorax_tz	clav_prot_r	clav_elev_r	scapula_abduction_r	scapula_elevation_r	scapula_upward_rot_r	scapula_winging_r	shoulder_elv_r	plane_of_elev_r	axial_rot_r	elbow_flexion_r	pro_sup_r	wrist_flex_r	wrist_dev_r	clav_prot_l	clav_elev_l	scapula_abduction_l	scapula_elevation_l	scapula_upward_rot_l	scapula_winging_l	shoulder_elv_l	plane_of_elev_l	axial_rot_l	elbow_flexion_l	pro_sup_l	wrist_flex_l	wrist_dev_l
      3.85000000	     25.06599829	     29.40150611	     49.41036289	     31.26244177	    810.97643511	    -44.61995935	     13.14507264	     35.06831596	     29.78364251	     45.00000000	    -45.00000000	   2077.23628578	   3310.41140243	     23.81090167	    179.99999979	   2879.23270192	    173.18958099	     13.90104481	     15.79052972	    -10.86399522	    -45.00000000	    -36.44850938	     45.00000000	    -45.00000000	   2978.97918449	  -3164.64478803	     26.94231845	     37.22164146	   2509.92510586	     45.33507140	     12.94582951	    -15.93569780
      3.86000000	     24.95128485	     29.65062277	     49.68619840	     34.65848773	    809.02374003	    -44.23074963	     13.18894133	     35.12058942	     29.79371161	     45.00000000	    -45.00000000	   2077.42055322	   3310.26197257	     23.78863901	    179.99999979	   2879.38312135	    173.71624574	     13.81525103	     15.64369599	    -11.14882883	    -45.00000000	    -36.23962981	     45.00000000	    -45.00000000	   2978.83069360	  -3164.84599266	     26.78814063	     36.77901120	   2509.88962028	     45.49146966	     12.83611045	    -15.72135749
      3.87000000	     24.89691271	     29.86589858	     49.80368703	     38.01750522	    807.08290191	    -43.86359096	     13.19359047	     35.21113661	     29.63795886	     45.00000000	    -45.00000000	   2077.82001116	   3310.28737429	     23.72809673	    179.99999979	   2879.48808428	    174.30514958	     13.67580944	     15.61891963	    -11.43081885	    -45.00000000	    -35.99241634	     45.00000000	    -45.00000000	   2978.57957776	  -3165.04806150	     26.62443905	     36.25810240	   2509.93496375	     45.61394421	     12.75750936	    -15.54527190
      3.88000000	     24.73803002	     30.15548101	     50.10135755	     41.33232503	    805.15940645	    -43.52273040	     13.21602364	     35.23364742	     29.57660442	     45.00000000	    -45.00000000	   2078.04789444	   3310.15313275	     23.65437953	    179.99999979	   2879.66087346	    174.81412876	     13.58202163	     15.48858782	    -11.66224219	    -45.00000000	    -35.79745969	     45.00000000	    -45.00000000	   2978.43895428	  -3165.25499252	     26.46431549	     35.70346307	   2509.91658159	     45.73993490	     12.64819870	    -15.32871217
      3.89000000	     24.70862591	     30.37027759	     50.18519906	     44.59435317	    803.25718995	    -43.21012131	     13.23863012	     35.34533102	     29.61033073	     45.00000000	    -45.00000000	   2078.29029425	   3309.99587590	     23.57984117	    179.99999979	   2879.86902222	    175.38933615	     13.48689612	     15.39802966	    -11.99787407	    -45.00000000	    -35.55187434	     45.00000000	    -45.00000000	   2978.26160077	  -3165.45680933	     26.36516510	     35.26936277	   2509.90947561	     45.83839640	     12.59812539	    -15.17363237
      3.90000000	     24.58092599	     30.63500040	     50.41596117	     47.79426839	    801.37962693	    -42.92638269	     13.27028416	     35.34133361	     29.43788937	     45.00000000	    -45.00000000	   2078.66648894	   3309.99579745	     23.49803978	    179.99999979	   2880.07248480	    175.92745379	     13.35751308	     15.27405126	    -12.20319068	    -45.00000000	    -35.35698587	     45.00000000	    -45.00000000	   2978.05601232	  -3165.61522272	     26.12276372	     34.62194775	   2509.91895294	     45.93016482	     12.46851599	    -14.94106960
      3.91000000	     24.52422685	     30.89427080	     50.50514949	     50.92288012	    799.53116113	    -42.67163475	     13.23603956	     35.43548337	     29.41216065	     45.00000000	    -45.00000000	   2078.84493679	   3309.83623873	     23.45234901	    179.99999979	   2880.26035770	    176.47401215	     13.29049854	     15.19148716	    -12.48107782	    -45.00000000	    -35.13184224	     45.00000000	    -45.00000000	   2977.93947985	  -3165.86018096	     26.08423220	     34.19167103	   2509.91714200	     45.97957144	     12.43256790	    -14.81988070
      3.92000000	     24.44728485	     31.13289782	     50.64984585	     53.97164862	    797.71690822	    -42.44575912	     13.22396854	     35.46388094	     29.32382537	     45.00000000	    -45.00000000	   2079.14574451	   3309.75617263	     23.36550687	    179.99999979	   2880.46870869	    177.04505681	     13.19830052	     15.10231514	    -12.70389197	    -45.00000000	    -34.93186784	     45.00000000	    -45.00000000	   2977.78542911	  -3166.04230178	     25.91611721	     33.68279876	   2509.89435253	     46.02585073	     12.37453070	    -14.66770963
      3.93000000	     24.41151135	     31.37107741	     50.71947229	     56.92871384	    795.94575496	    -42.24941086	     13.21311755	     35.52488621	     29.24145337	     45.00000000	    -45.00000000	   2079.39674750	   3309.66587370	     23.32265860	    179.99999979	   2880.69013795	    177.62417604	     13.11935000	     15.00988282	    -12.95035464	    -45.00000000	    -34.73881311	     45.00000000	    -45.00000000	   2977.65358402	  -3166.24575484	     25.80433804	     33.21463563	   2509.88077548	     46.04271474	     12.31559448	    -14.52938163
      3.94000000	     24.34477612	     31.62237826	     50.82648651	     59.78477463	    794.22535842	    -42.08298166	     13.18287592	     35.54962133	     29.13247224	     45.00000000	    -45.00000000	   2079.71246271	   3309.62675970	     23.21754759	    179.99999979	   2880.90526602	    178.16835870	     13.03210327	     14.91776963	    -13.14632867	    -45.00000000	    -34.55157002	     45.00000000	    -45.00000000	   2977.51440514	  -3166.42186335	     25.65447490	     32.65366577	   2509.87916324	     46.03524552	     12.26656262	    -14.40397199
